<mxfile host="app.diagrams.net" agent="Mozilla/5.0 (Windows NT 10.0; Win64; x64) AppleWebKit/537.36 (KHTML, like Gecko) Chrome/129.0.0.0 Safari/537.36 Edg/129.0.0.0" version="24.8.0">
  <diagram id="prtHgNgQTEPvFCAcTncT" name="Page-1">
    <mxGraphModel dx="842" dy="533" grid="1" gridSize="10" guides="1" tooltips="1" connect="1" arrows="1" fold="1" page="1" pageScale="1" pageWidth="827" pageHeight="1169" math="1" shadow="0">
      <root>
        <mxCell id="0" />
        <mxCell id="1" parent="0" />
        <mxCell id="6uF64dpKUKu1V5xcWmwK-1" value="校园寻物启事系统" style="rounded=0;whiteSpace=wrap;html=1;" parent="1" vertex="1">
          <mxGeometry x="320" y="40" width="120" height="40" as="geometry" />
        </mxCell>
        <mxCell id="6uF64dpKUKu1V5xcWmwK-2" value="" style="endArrow=none;html=1;rounded=0;" parent="1" edge="1">
          <mxGeometry width="50" height="50" relative="1" as="geometry">
            <mxPoint x="380" y="110" as="sourcePoint" />
            <mxPoint x="379.5" y="80" as="targetPoint" />
          </mxGeometry>
        </mxCell>
        <mxCell id="6uF64dpKUKu1V5xcWmwK-3" value="后 台" style="rounded=0;align=center;verticalAlign=middle;spacingTop=0;html=1;labelPosition=center;verticalLabelPosition=middle;fontSize=12;spacing=0;spacingBottom=0;spacingLeft=0;horizontal=1;textDirection=vertical-lr;whiteSpace=wrap;" parent="1" vertex="1">
          <mxGeometry x="230" y="130" width="30" height="60" as="geometry" />
        </mxCell>
        <mxCell id="6uF64dpKUKu1V5xcWmwK-4" value="前 台" style="rounded=0;align=center;verticalAlign=middle;spacingTop=0;html=1;labelPosition=center;verticalLabelPosition=middle;fontSize=12;spacing=0;spacingBottom=0;spacingLeft=0;horizontal=1;textDirection=vertical-lr;whiteSpace=wrap;" parent="1" vertex="1">
          <mxGeometry x="506" y="130" width="30" height="60" as="geometry" />
        </mxCell>
        <mxCell id="6uF64dpKUKu1V5xcWmwK-5" value="" style="shape=partialRectangle;whiteSpace=wrap;html=1;bottom=1;right=1;left=1;top=0;fillColor=none;routingCenterX=-0.5;rotation=-180;" parent="1" vertex="1">
          <mxGeometry x="245" y="110" width="275" height="20" as="geometry" />
        </mxCell>
        <mxCell id="6uF64dpKUKu1V5xcWmwK-8" value="" style="shape=partialRectangle;whiteSpace=wrap;html=1;bottom=1;right=1;left=1;top=0;fillColor=none;routingCenterX=-0.5;rotation=-180;" parent="1" vertex="1">
          <mxGeometry x="130" y="210" width="275" height="20" as="geometry" />
        </mxCell>
        <mxCell id="6uF64dpKUKu1V5xcWmwK-9" value="" style="endArrow=none;html=1;rounded=0;" parent="1" edge="1">
          <mxGeometry width="50" height="50" relative="1" as="geometry">
            <mxPoint x="245" y="210" as="sourcePoint" />
            <mxPoint x="244.66" y="190" as="targetPoint" />
          </mxGeometry>
        </mxCell>
        <mxCell id="6uF64dpKUKu1V5xcWmwK-11" value="启 事 管 理" style="rounded=0;align=center;verticalAlign=middle;spacingTop=0;html=1;labelPosition=center;verticalLabelPosition=middle;fontSize=11;spacing=0;spacingBottom=0;spacingLeft=0;horizontal=1;textDirection=vertical-lr;whiteSpace=wrap;" parent="1" vertex="1">
          <mxGeometry x="110" y="230" width="30" height="90" as="geometry" />
        </mxCell>
        <mxCell id="6uF64dpKUKu1V5xcWmwK-13" value="认 领 管 理" style="rounded=0;align=center;verticalAlign=middle;spacingTop=0;html=1;labelPosition=center;verticalLabelPosition=middle;fontSize=11;spacing=0;spacingBottom=0;spacingLeft=0;horizontal=1;textDirection=vertical-lr;whiteSpace=wrap;" parent="1" vertex="1">
          <mxGeometry x="150" y="230" width="30" height="90" as="geometry" />
        </mxCell>
        <mxCell id="6uF64dpKUKu1V5xcWmwK-14" value="匹 配 推 送" style="rounded=0;align=center;verticalAlign=middle;spacingTop=0;html=1;labelPosition=center;verticalLabelPosition=middle;fontSize=11;spacing=0;spacingBottom=0;spacingLeft=0;horizontal=1;textDirection=vertical-lr;whiteSpace=wrap;" parent="1" vertex="1">
          <mxGeometry x="190" y="230" width="30" height="90" as="geometry" />
        </mxCell>
        <mxCell id="6uF64dpKUKu1V5xcWmwK-15" value="回 答 验 证" style="rounded=0;align=center;verticalAlign=middle;spacingTop=0;html=1;labelPosition=center;verticalLabelPosition=middle;fontSize=11;spacing=0;spacingBottom=0;spacingLeft=0;horizontal=1;textDirection=vertical-lr;whiteSpace=wrap;" parent="1" vertex="1">
          <mxGeometry x="230" y="230" width="30" height="90" as="geometry" />
        </mxCell>
        <mxCell id="6uF64dpKUKu1V5xcWmwK-16" value="感 谢 信 管 理" style="rounded=0;align=center;verticalAlign=middle;spacingTop=0;html=1;labelPosition=center;verticalLabelPosition=middle;fontSize=11;spacing=0;spacingBottom=0;spacingLeft=0;horizontal=1;textDirection=vertical-lr;whiteSpace=wrap;" parent="1" vertex="1">
          <mxGeometry x="270" y="230" width="30" height="90" as="geometry" />
        </mxCell>
        <mxCell id="6uF64dpKUKu1V5xcWmwK-17" value="留 言 管 理" style="rounded=0;align=center;verticalAlign=middle;spacingTop=0;html=1;labelPosition=center;verticalLabelPosition=middle;fontSize=11;spacing=0;spacingBottom=0;spacingLeft=0;horizontal=1;textDirection=vertical-lr;whiteSpace=wrap;" parent="1" vertex="1">
          <mxGeometry x="310" y="230" width="30" height="90" as="geometry" />
        </mxCell>
        <mxCell id="6uF64dpKUKu1V5xcWmwK-18" value="公 告 管 理" style="rounded=0;align=center;verticalAlign=middle;spacingTop=0;html=1;labelPosition=center;verticalLabelPosition=middle;fontSize=11;spacing=0;spacingBottom=0;spacingLeft=0;horizontal=1;textDirection=vertical-lr;whiteSpace=wrap;" parent="1" vertex="1">
          <mxGeometry x="350" y="230" width="30" height="90" as="geometry" />
        </mxCell>
        <mxCell id="6uF64dpKUKu1V5xcWmwK-19" value="用 户 管 理" style="rounded=0;align=center;verticalAlign=middle;spacingTop=0;html=1;labelPosition=center;verticalLabelPosition=middle;fontSize=11;spacing=0;spacingBottom=0;spacingLeft=0;horizontal=1;textDirection=vertical-lr;whiteSpace=wrap;" parent="1" vertex="1">
          <mxGeometry x="390" y="230" width="30" height="90" as="geometry" />
        </mxCell>
        <mxCell id="6uF64dpKUKu1V5xcWmwK-20" value="" style="endArrow=none;html=1;rounded=0;exitX=0.5;exitY=0;exitDx=0;exitDy=0;" parent="1" source="6uF64dpKUKu1V5xcWmwK-13" edge="1">
          <mxGeometry width="50" height="50" relative="1" as="geometry">
            <mxPoint x="165.16" y="240" as="sourcePoint" />
            <mxPoint x="164.66" y="210" as="targetPoint" />
          </mxGeometry>
        </mxCell>
        <mxCell id="6uF64dpKUKu1V5xcWmwK-25" value="" style="endArrow=none;html=1;rounded=0;exitX=0.5;exitY=0;exitDx=0;exitDy=0;" parent="1" edge="1">
          <mxGeometry width="50" height="50" relative="1" as="geometry">
            <mxPoint x="206" y="229" as="sourcePoint" />
            <mxPoint x="205.66" y="209" as="targetPoint" />
          </mxGeometry>
        </mxCell>
        <mxCell id="6uF64dpKUKu1V5xcWmwK-26" value="" style="endArrow=none;html=1;rounded=0;exitX=0.5;exitY=0;exitDx=0;exitDy=0;" parent="1" edge="1">
          <mxGeometry width="50" height="50" relative="1" as="geometry">
            <mxPoint x="245" y="230" as="sourcePoint" />
            <mxPoint x="244.66" y="210" as="targetPoint" />
          </mxGeometry>
        </mxCell>
        <mxCell id="6uF64dpKUKu1V5xcWmwK-27" value="" style="endArrow=none;html=1;rounded=0;exitX=0.5;exitY=0;exitDx=0;exitDy=0;" parent="1" edge="1">
          <mxGeometry width="50" height="50" relative="1" as="geometry">
            <mxPoint x="286" y="230" as="sourcePoint" />
            <mxPoint x="285.65999999999997" y="210" as="targetPoint" />
          </mxGeometry>
        </mxCell>
        <mxCell id="6uF64dpKUKu1V5xcWmwK-28" value="" style="endArrow=none;html=1;rounded=0;exitX=0.5;exitY=0;exitDx=0;exitDy=0;" parent="1" edge="1">
          <mxGeometry width="50" height="50" relative="1" as="geometry">
            <mxPoint x="327" y="230" as="sourcePoint" />
            <mxPoint x="326.65999999999997" y="210" as="targetPoint" />
          </mxGeometry>
        </mxCell>
        <mxCell id="6uF64dpKUKu1V5xcWmwK-29" value="" style="endArrow=none;html=1;rounded=0;exitX=0.5;exitY=0;exitDx=0;exitDy=0;" parent="1" edge="1">
          <mxGeometry width="50" height="50" relative="1" as="geometry">
            <mxPoint x="367" y="230" as="sourcePoint" />
            <mxPoint x="366.65999999999997" y="210" as="targetPoint" />
          </mxGeometry>
        </mxCell>
        <mxCell id="6uF64dpKUKu1V5xcWmwK-30" value="" style="shape=partialRectangle;whiteSpace=wrap;html=1;bottom=1;right=1;left=1;top=0;fillColor=none;routingCenterX=-0.5;rotation=-180;" parent="1" vertex="1">
          <mxGeometry x="452" y="210" width="202" height="20" as="geometry" />
        </mxCell>
        <mxCell id="6uF64dpKUKu1V5xcWmwK-31" value="" style="endArrow=none;html=1;rounded=0;" parent="1" edge="1">
          <mxGeometry width="50" height="50" relative="1" as="geometry">
            <mxPoint x="520" y="211" as="sourcePoint" />
            <mxPoint x="519.66" y="191" as="targetPoint" />
          </mxGeometry>
        </mxCell>
        <mxCell id="6uF64dpKUKu1V5xcWmwK-32" value="登 录 注 册" style="rounded=0;align=center;verticalAlign=middle;spacingTop=0;html=1;labelPosition=center;verticalLabelPosition=middle;fontSize=11;spacing=0;spacingBottom=0;spacingLeft=0;horizontal=1;textDirection=vertical-lr;whiteSpace=wrap;" parent="1" vertex="1">
          <mxGeometry x="440" y="230" width="30" height="90" as="geometry" />
        </mxCell>
        <mxCell id="6uF64dpKUKu1V5xcWmwK-33" value="发 布 启 事" style="rounded=0;align=center;verticalAlign=middle;spacingTop=0;html=1;labelPosition=center;verticalLabelPosition=middle;fontSize=11;spacing=0;spacingBottom=0;spacingLeft=0;horizontal=1;textDirection=vertical-lr;whiteSpace=wrap;" parent="1" vertex="1">
          <mxGeometry x="480" y="230" width="30" height="90" as="geometry" />
        </mxCell>
        <mxCell id="6uF64dpKUKu1V5xcWmwK-34" value="搜 索 启 事" style="rounded=0;align=center;verticalAlign=middle;spacingTop=0;html=1;labelPosition=center;verticalLabelPosition=middle;fontSize=11;spacing=0;spacingBottom=0;spacingLeft=0;horizontal=1;textDirection=vertical-lr;whiteSpace=wrap;" parent="1" vertex="1">
          <mxGeometry x="520" y="230" width="30" height="90" as="geometry" />
        </mxCell>
        <mxCell id="6uF64dpKUKu1V5xcWmwK-35" value="提 供 线 索" style="rounded=0;align=center;verticalAlign=middle;spacingTop=0;html=1;labelPosition=center;verticalLabelPosition=middle;fontSize=11;spacing=0;spacingBottom=0;spacingLeft=0;horizontal=1;textDirection=vertical-lr;whiteSpace=wrap;" parent="1" vertex="1">
          <mxGeometry x="560" y="230" width="30" height="90" as="geometry" />
        </mxCell>
        <mxCell id="6uF64dpKUKu1V5xcWmwK-36" value="提 交 留 言" style="rounded=0;align=center;verticalAlign=middle;spacingTop=0;html=1;labelPosition=center;verticalLabelPosition=middle;fontSize=11;spacing=0;spacingBottom=0;spacingLeft=0;horizontal=1;textDirection=vertical-lr;whiteSpace=wrap;" parent="1" vertex="1">
          <mxGeometry x="600" y="230" width="30" height="90" as="geometry" />
        </mxCell>
        <mxCell id="bnHP4XVdyDgP-w02IS33-1" value="" style="endArrow=none;html=1;rounded=0;exitX=0.5;exitY=0;exitDx=0;exitDy=0;" edge="1" parent="1">
          <mxGeometry width="50" height="50" relative="1" as="geometry">
            <mxPoint x="495" y="230" as="sourcePoint" />
            <mxPoint x="494.65999999999997" y="210" as="targetPoint" />
          </mxGeometry>
        </mxCell>
        <mxCell id="bnHP4XVdyDgP-w02IS33-3" value="" style="endArrow=none;html=1;rounded=0;exitX=0.5;exitY=0;exitDx=0;exitDy=0;" edge="1" parent="1">
          <mxGeometry width="50" height="50" relative="1" as="geometry">
            <mxPoint x="536" y="230" as="sourcePoint" />
            <mxPoint x="535.66" y="210" as="targetPoint" />
          </mxGeometry>
        </mxCell>
        <mxCell id="bnHP4XVdyDgP-w02IS33-4" value="" style="endArrow=none;html=1;rounded=0;exitX=0.5;exitY=0;exitDx=0;exitDy=0;" edge="1" parent="1">
          <mxGeometry width="50" height="50" relative="1" as="geometry">
            <mxPoint x="575" y="230" as="sourcePoint" />
            <mxPoint x="574.66" y="210" as="targetPoint" />
          </mxGeometry>
        </mxCell>
        <mxCell id="bnHP4XVdyDgP-w02IS33-5" value="写 感 谢 信" style="rounded=0;align=center;verticalAlign=middle;spacingTop=0;html=1;labelPosition=center;verticalLabelPosition=middle;fontSize=11;spacing=0;spacingBottom=0;spacingLeft=0;horizontal=1;textDirection=vertical-lr;whiteSpace=wrap;" vertex="1" parent="1">
          <mxGeometry x="640" y="230" width="30" height="90" as="geometry" />
        </mxCell>
        <mxCell id="bnHP4XVdyDgP-w02IS33-6" value="物品" style="rounded=0;whiteSpace=wrap;html=1;fontSize=9;" vertex="1" parent="1">
          <mxGeometry x="615" y="500" width="60" height="20" as="geometry" />
        </mxCell>
        <mxCell id="bnHP4XVdyDgP-w02IS33-21" value="&lt;span style=&quot;font-size: 8px;&quot;&gt;物品图片&lt;/span&gt;" style="ellipse;whiteSpace=wrap;html=1;" vertex="1" parent="1">
          <mxGeometry x="610" y="420" width="40" height="20" as="geometry" />
        </mxCell>
        <mxCell id="bnHP4XVdyDgP-w02IS33-22" value="" style="endArrow=none;html=1;rounded=0;entryX=0.5;entryY=1;entryDx=0;entryDy=0;exitX=0.5;exitY=0;exitDx=0;exitDy=0;" edge="1" parent="1" source="bnHP4XVdyDgP-w02IS33-6" target="bnHP4XVdyDgP-w02IS33-21">
          <mxGeometry width="50" height="50" relative="1" as="geometry">
            <mxPoint x="671" y="500" as="sourcePoint" />
            <mxPoint x="650" y="450" as="targetPoint" />
          </mxGeometry>
        </mxCell>
        <mxCell id="bnHP4XVdyDgP-w02IS33-24" value="&lt;span style=&quot;font-size: 8px;&quot;&gt;物品名称&lt;/span&gt;" style="ellipse;whiteSpace=wrap;html=1;" vertex="1" parent="1">
          <mxGeometry x="520" y="460" width="40" height="20" as="geometry" />
        </mxCell>
        <mxCell id="bnHP4XVdyDgP-w02IS33-25" value="" style="endArrow=none;html=1;rounded=0;exitX=0.5;exitY=0;exitDx=0;exitDy=0;entryX=0.5;entryY=1;entryDx=0;entryDy=0;" edge="1" parent="1" source="bnHP4XVdyDgP-w02IS33-6" target="bnHP4XVdyDgP-w02IS33-24">
          <mxGeometry width="50" height="50" relative="1" as="geometry">
            <mxPoint x="620" y="490" as="sourcePoint" />
            <mxPoint x="655" y="430" as="targetPoint" />
          </mxGeometry>
        </mxCell>
        <mxCell id="bnHP4XVdyDgP-w02IS33-28" value="&lt;span style=&quot;font-size: 8px;&quot;&gt;物品特征&lt;/span&gt;" style="ellipse;whiteSpace=wrap;html=1;" vertex="1" parent="1">
          <mxGeometry x="555" y="430" width="40" height="20" as="geometry" />
        </mxCell>
        <mxCell id="bnHP4XVdyDgP-w02IS33-29" value="" style="endArrow=none;html=1;rounded=0;entryX=0.5;entryY=1;entryDx=0;entryDy=0;exitX=0.5;exitY=0;exitDx=0;exitDy=0;" edge="1" parent="1" source="bnHP4XVdyDgP-w02IS33-6" target="bnHP4XVdyDgP-w02IS33-28">
          <mxGeometry width="50" height="50" relative="1" as="geometry">
            <mxPoint x="650" y="520" as="sourcePoint" />
            <mxPoint x="695" y="420" as="targetPoint" />
          </mxGeometry>
        </mxCell>
        <mxCell id="bnHP4XVdyDgP-w02IS33-34" value="&lt;span style=&quot;font-size: 8px;&quot;&gt;日期&lt;/span&gt;" style="ellipse;whiteSpace=wrap;html=1;" vertex="1" parent="1">
          <mxGeometry x="735" y="460" width="40" height="20" as="geometry" />
        </mxCell>
        <mxCell id="bnHP4XVdyDgP-w02IS33-36" value="&lt;span style=&quot;font-size: 8px;&quot;&gt;地点&lt;/span&gt;" style="ellipse;whiteSpace=wrap;html=1;" vertex="1" parent="1">
          <mxGeometry x="720" y="430" width="40" height="20" as="geometry" />
        </mxCell>
        <mxCell id="bnHP4XVdyDgP-w02IS33-42" value="" style="endArrow=none;html=1;rounded=0;entryX=0.5;entryY=1;entryDx=0;entryDy=0;exitX=0.5;exitY=0;exitDx=0;exitDy=0;" edge="1" parent="1" source="bnHP4XVdyDgP-w02IS33-6" target="bnHP4XVdyDgP-w02IS33-36">
          <mxGeometry width="50" height="50" relative="1" as="geometry">
            <mxPoint x="680" y="510" as="sourcePoint" />
            <mxPoint x="806" y="543" as="targetPoint" />
          </mxGeometry>
        </mxCell>
        <mxCell id="bnHP4XVdyDgP-w02IS33-47" value="" style="endArrow=none;html=1;rounded=0;exitX=0.5;exitY=0;exitDx=0;exitDy=0;entryX=0.5;entryY=1;entryDx=0;entryDy=0;" edge="1" parent="1" source="bnHP4XVdyDgP-w02IS33-6" target="bnHP4XVdyDgP-w02IS33-34">
          <mxGeometry width="50" height="50" relative="1" as="geometry">
            <mxPoint x="640" y="500" as="sourcePoint" />
            <mxPoint x="750" y="480" as="targetPoint" />
          </mxGeometry>
        </mxCell>
        <mxCell id="bnHP4XVdyDgP-w02IS33-48" value="用户" style="rounded=0;whiteSpace=wrap;html=1;fontSize=9;" vertex="1" parent="1">
          <mxGeometry x="210" y="500" width="60" height="20" as="geometry" />
        </mxCell>
        <mxCell id="bnHP4XVdyDgP-w02IS33-49" value="&lt;span style=&quot;font-size: 8px;&quot;&gt;联系电话&lt;/span&gt;" style="ellipse;whiteSpace=wrap;html=1;" vertex="1" parent="1">
          <mxGeometry x="230" y="420" width="40" height="20" as="geometry" />
        </mxCell>
        <mxCell id="bnHP4XVdyDgP-w02IS33-50" value="" style="endArrow=none;html=1;rounded=0;entryX=0.5;entryY=1;entryDx=0;entryDy=0;exitX=0.5;exitY=0;exitDx=0;exitDy=0;" edge="1" parent="1" source="bnHP4XVdyDgP-w02IS33-48" target="bnHP4XVdyDgP-w02IS33-49">
          <mxGeometry width="50" height="50" relative="1" as="geometry">
            <mxPoint x="266" y="500" as="sourcePoint" />
            <mxPoint x="245" y="450" as="targetPoint" />
          </mxGeometry>
        </mxCell>
        <mxCell id="bnHP4XVdyDgP-w02IS33-51" value="&lt;span style=&quot;font-size: 8px;&quot;&gt;用户名&lt;/span&gt;" style="ellipse;whiteSpace=wrap;html=1;" vertex="1" parent="1">
          <mxGeometry x="130" y="450" width="40" height="20" as="geometry" />
        </mxCell>
        <mxCell id="bnHP4XVdyDgP-w02IS33-52" value="" style="endArrow=none;html=1;rounded=0;exitX=0.5;exitY=0;exitDx=0;exitDy=0;entryX=0.5;entryY=1;entryDx=0;entryDy=0;" edge="1" parent="1" source="bnHP4XVdyDgP-w02IS33-48" target="bnHP4XVdyDgP-w02IS33-51">
          <mxGeometry width="50" height="50" relative="1" as="geometry">
            <mxPoint x="215" y="490" as="sourcePoint" />
            <mxPoint x="250" y="430" as="targetPoint" />
          </mxGeometry>
        </mxCell>
        <mxCell id="bnHP4XVdyDgP-w02IS33-53" value="&lt;span style=&quot;font-size: 8px;&quot;&gt;密码&lt;/span&gt;" style="ellipse;whiteSpace=wrap;html=1;" vertex="1" parent="1">
          <mxGeometry x="175" y="420" width="40" height="20" as="geometry" />
        </mxCell>
        <mxCell id="bnHP4XVdyDgP-w02IS33-54" value="" style="endArrow=none;html=1;rounded=0;entryX=0.5;entryY=1;entryDx=0;entryDy=0;exitX=0.5;exitY=0;exitDx=0;exitDy=0;" edge="1" parent="1" source="bnHP4XVdyDgP-w02IS33-48" target="bnHP4XVdyDgP-w02IS33-53">
          <mxGeometry width="50" height="50" relative="1" as="geometry">
            <mxPoint x="245" y="520" as="sourcePoint" />
            <mxPoint x="290" y="420" as="targetPoint" />
          </mxGeometry>
        </mxCell>
        <mxCell id="bnHP4XVdyDgP-w02IS33-55" value="&lt;span style=&quot;font-size: 8px;&quot;&gt;联系地址&lt;/span&gt;" style="ellipse;whiteSpace=wrap;html=1;" vertex="1" parent="1">
          <mxGeometry x="340" y="460" width="40" height="20" as="geometry" />
        </mxCell>
        <mxCell id="bnHP4XVdyDgP-w02IS33-56" value="&lt;span style=&quot;font-size: 8px;&quot;&gt;联系邮箱&lt;/span&gt;" style="ellipse;whiteSpace=wrap;html=1;" vertex="1" parent="1">
          <mxGeometry x="285" y="430" width="40" height="20" as="geometry" />
        </mxCell>
        <mxCell id="bnHP4XVdyDgP-w02IS33-57" value="" style="endArrow=none;html=1;rounded=0;entryX=0.5;entryY=1;entryDx=0;entryDy=0;exitX=0.5;exitY=0;exitDx=0;exitDy=0;" edge="1" parent="1" source="bnHP4XVdyDgP-w02IS33-48" target="bnHP4XVdyDgP-w02IS33-56">
          <mxGeometry width="50" height="50" relative="1" as="geometry">
            <mxPoint x="275" y="510" as="sourcePoint" />
            <mxPoint x="401" y="543" as="targetPoint" />
          </mxGeometry>
        </mxCell>
        <mxCell id="bnHP4XVdyDgP-w02IS33-58" value="" style="endArrow=none;html=1;rounded=0;exitX=0.5;exitY=0;exitDx=0;exitDy=0;entryX=0.411;entryY=0.976;entryDx=0;entryDy=0;entryPerimeter=0;" edge="1" parent="1" source="bnHP4XVdyDgP-w02IS33-48" target="bnHP4XVdyDgP-w02IS33-55">
          <mxGeometry width="50" height="50" relative="1" as="geometry">
            <mxPoint x="235" y="500" as="sourcePoint" />
            <mxPoint x="345" y="480" as="targetPoint" />
          </mxGeometry>
        </mxCell>
        <mxCell id="bnHP4XVdyDgP-w02IS33-59" value="" style="endArrow=none;html=1;rounded=0;exitX=1;exitY=0.5;exitDx=0;exitDy=0;entryX=0;entryY=0.5;entryDx=0;entryDy=0;" edge="1" parent="1" source="bnHP4XVdyDgP-w02IS33-48" target="bnHP4XVdyDgP-w02IS33-60">
          <mxGeometry width="50" height="50" relative="1" as="geometry">
            <mxPoint x="410" y="550" as="sourcePoint" />
            <mxPoint x="400" y="510" as="targetPoint" />
          </mxGeometry>
        </mxCell>
        <mxCell id="bnHP4XVdyDgP-w02IS33-60" value="&lt;font style=&quot;font-size: 8px;&quot;&gt;寻找/招领&lt;/font&gt;" style="rhombus;whiteSpace=wrap;html=1;" vertex="1" parent="1">
          <mxGeometry x="400" y="495" width="80" height="30" as="geometry" />
        </mxCell>
        <mxCell id="bnHP4XVdyDgP-w02IS33-61" value="" style="endArrow=none;html=1;rounded=0;entryX=0;entryY=0.5;entryDx=0;entryDy=0;exitX=1;exitY=0.5;exitDx=0;exitDy=0;" edge="1" parent="1" source="bnHP4XVdyDgP-w02IS33-60" target="bnHP4XVdyDgP-w02IS33-6">
          <mxGeometry width="50" height="50" relative="1" as="geometry">
            <mxPoint x="500" y="510" as="sourcePoint" />
            <mxPoint x="662" y="509.71" as="targetPoint" />
          </mxGeometry>
        </mxCell>
        <mxCell id="bnHP4XVdyDgP-w02IS33-62" value="&lt;span style=&quot;font-size: 8px;&quot;&gt;物品描述&lt;/span&gt;" style="ellipse;whiteSpace=wrap;html=1;" vertex="1" parent="1">
          <mxGeometry x="670" y="420" width="40" height="20" as="geometry" />
        </mxCell>
        <mxCell id="bnHP4XVdyDgP-w02IS33-63" value="" style="endArrow=none;html=1;rounded=0;entryX=0.5;entryY=1;entryDx=0;entryDy=0;exitX=0.5;exitY=0;exitDx=0;exitDy=0;" edge="1" parent="1" source="bnHP4XVdyDgP-w02IS33-6" target="bnHP4XVdyDgP-w02IS33-62">
          <mxGeometry width="50" height="50" relative="1" as="geometry">
            <mxPoint x="655" y="510" as="sourcePoint" />
            <mxPoint x="750" y="460" as="targetPoint" />
          </mxGeometry>
        </mxCell>
        <mxCell id="bnHP4XVdyDgP-w02IS33-65" value="管理员" style="rounded=0;whiteSpace=wrap;html=1;fontSize=9;" vertex="1" parent="1">
          <mxGeometry x="410" y="680" width="60" height="20" as="geometry" />
        </mxCell>
        <mxCell id="bnHP4XVdyDgP-w02IS33-66" value="游客" style="rounded=0;whiteSpace=wrap;html=1;fontSize=9;" vertex="1" parent="1">
          <mxGeometry x="90" y="560" width="60" height="20" as="geometry" />
        </mxCell>
        <mxCell id="bnHP4XVdyDgP-w02IS33-67" value="&lt;font style=&quot;font-size: 8px;&quot;&gt;注册&lt;/font&gt;" style="rhombus;whiteSpace=wrap;html=1;" vertex="1" parent="1">
          <mxGeometry x="90" y="495" width="60" height="30" as="geometry" />
        </mxCell>
        <mxCell id="bnHP4XVdyDgP-w02IS33-68" value="" style="endArrow=none;html=1;rounded=0;exitX=0;exitY=0.5;exitDx=0;exitDy=0;entryX=1;entryY=0.5;entryDx=0;entryDy=0;" edge="1" parent="1" source="bnHP4XVdyDgP-w02IS33-48" target="bnHP4XVdyDgP-w02IS33-67">
          <mxGeometry width="50" height="50" relative="1" as="geometry">
            <mxPoint x="260" y="565" as="sourcePoint" />
            <mxPoint x="390" y="565" as="targetPoint" />
          </mxGeometry>
        </mxCell>
        <mxCell id="bnHP4XVdyDgP-w02IS33-69" value="" style="endArrow=none;html=1;rounded=0;exitX=0.5;exitY=1;exitDx=0;exitDy=0;entryX=0.5;entryY=0;entryDx=0;entryDy=0;" edge="1" parent="1" target="bnHP4XVdyDgP-w02IS33-66">
          <mxGeometry width="50" height="50" relative="1" as="geometry">
            <mxPoint x="119.71000000000001" y="525" as="sourcePoint" />
            <mxPoint x="119.71000000000001" y="570" as="targetPoint" />
          </mxGeometry>
        </mxCell>
        <mxCell id="bnHP4XVdyDgP-w02IS33-70" value="&lt;span style=&quot;font-size: 8px;&quot;&gt;管理&lt;/span&gt;" style="rhombus;whiteSpace=wrap;html=1;" vertex="1" parent="1">
          <mxGeometry x="410" y="610" width="60" height="30" as="geometry" />
        </mxCell>
        <mxCell id="bnHP4XVdyDgP-w02IS33-71" value="" style="endArrow=none;html=1;rounded=0;exitX=0.5;exitY=1;exitDx=0;exitDy=0;entryX=0;entryY=0.5;entryDx=0;entryDy=0;" edge="1" parent="1" source="bnHP4XVdyDgP-w02IS33-48" target="bnHP4XVdyDgP-w02IS33-70">
          <mxGeometry width="50" height="50" relative="1" as="geometry">
            <mxPoint x="285" y="540" as="sourcePoint" />
            <mxPoint x="425" y="540" as="targetPoint" />
          </mxGeometry>
        </mxCell>
        <mxCell id="bnHP4XVdyDgP-w02IS33-72" value="" style="endArrow=none;html=1;rounded=0;exitX=0.5;exitY=1;exitDx=0;exitDy=0;entryX=0.5;entryY=0;entryDx=0;entryDy=0;" edge="1" parent="1" source="bnHP4XVdyDgP-w02IS33-70" target="bnHP4XVdyDgP-w02IS33-65">
          <mxGeometry width="50" height="50" relative="1" as="geometry">
            <mxPoint x="436" y="620" as="sourcePoint" />
            <mxPoint x="490" y="680" as="targetPoint" />
          </mxGeometry>
        </mxCell>
        <mxCell id="bnHP4XVdyDgP-w02IS33-73" value="" style="endArrow=none;html=1;rounded=0;exitX=1;exitY=0.5;exitDx=0;exitDy=0;entryX=0.5;entryY=1;entryDx=0;entryDy=0;" edge="1" parent="1" source="bnHP4XVdyDgP-w02IS33-70" target="bnHP4XVdyDgP-w02IS33-6">
          <mxGeometry width="50" height="50" relative="1" as="geometry">
            <mxPoint x="490" y="585" as="sourcePoint" />
            <mxPoint x="660" y="665" as="targetPoint" />
          </mxGeometry>
        </mxCell>
        <mxCell id="bnHP4XVdyDgP-w02IS33-74" value="&lt;span style=&quot;font-size: 8px;&quot;&gt;用户名&lt;/span&gt;" style="ellipse;whiteSpace=wrap;html=1;" vertex="1" parent="1">
          <mxGeometry x="390" y="740" width="40" height="20" as="geometry" />
        </mxCell>
        <mxCell id="bnHP4XVdyDgP-w02IS33-75" value="&lt;span style=&quot;font-size: 8px;&quot;&gt;密码&lt;/span&gt;" style="ellipse;whiteSpace=wrap;html=1;" vertex="1" parent="1">
          <mxGeometry x="480" y="740" width="40" height="20" as="geometry" />
        </mxCell>
        <mxCell id="bnHP4XVdyDgP-w02IS33-76" value="" style="endArrow=none;html=1;rounded=0;exitX=0.5;exitY=0;exitDx=0;exitDy=0;" edge="1" parent="1" source="bnHP4XVdyDgP-w02IS33-74">
          <mxGeometry width="50" height="50" relative="1" as="geometry">
            <mxPoint x="390" y="750" as="sourcePoint" />
            <mxPoint x="440" y="700" as="targetPoint" />
          </mxGeometry>
        </mxCell>
        <mxCell id="bnHP4XVdyDgP-w02IS33-77" value="" style="endArrow=none;html=1;rounded=0;exitX=0.5;exitY=0;exitDx=0;exitDy=0;" edge="1" parent="1" source="bnHP4XVdyDgP-w02IS33-75">
          <mxGeometry width="50" height="50" relative="1" as="geometry">
            <mxPoint x="420" y="750" as="sourcePoint" />
            <mxPoint x="440" y="700" as="targetPoint" />
          </mxGeometry>
        </mxCell>
        <mxCell id="bnHP4XVdyDgP-w02IS33-78" value="公告" style="rounded=0;whiteSpace=wrap;html=1;fontSize=9;" vertex="1" parent="1">
          <mxGeometry x="410" y="550" width="60" height="20" as="geometry" />
        </mxCell>
        <mxCell id="bnHP4XVdyDgP-w02IS33-79" value="留言/感谢信" style="rounded=0;whiteSpace=wrap;html=1;fontSize=9;" vertex="1" parent="1">
          <mxGeometry x="210" y="615" width="60" height="20" as="geometry" />
        </mxCell>
        <mxCell id="bnHP4XVdyDgP-w02IS33-80" value="" style="endArrow=none;html=1;rounded=0;exitX=0.5;exitY=1;exitDx=0;exitDy=0;entryX=0.5;entryY=0;entryDx=0;entryDy=0;" edge="1" parent="1">
          <mxGeometry width="50" height="50" relative="1" as="geometry">
            <mxPoint x="440" y="570" as="sourcePoint" />
            <mxPoint x="440" y="610" as="targetPoint" />
          </mxGeometry>
        </mxCell>
        <mxCell id="bnHP4XVdyDgP-w02IS33-81" value="&lt;span style=&quot;font-size: 8px;&quot;&gt;写&lt;/span&gt;" style="rhombus;whiteSpace=wrap;html=1;" vertex="1" parent="1">
          <mxGeometry x="210" y="554.5" width="60" height="30" as="geometry" />
        </mxCell>
        <mxCell id="bnHP4XVdyDgP-w02IS33-82" value="" style="endArrow=none;html=1;rounded=0;exitX=0.5;exitY=1;exitDx=0;exitDy=0;entryX=0.5;entryY=0;entryDx=0;entryDy=0;" edge="1" parent="1" source="bnHP4XVdyDgP-w02IS33-48" target="bnHP4XVdyDgP-w02IS33-81">
          <mxGeometry width="50" height="50" relative="1" as="geometry">
            <mxPoint x="220" y="520" as="sourcePoint" />
            <mxPoint x="160" y="520" as="targetPoint" />
          </mxGeometry>
        </mxCell>
        <mxCell id="bnHP4XVdyDgP-w02IS33-83" value="" style="endArrow=none;html=1;rounded=0;entryX=0;entryY=0.5;entryDx=0;entryDy=0;exitX=1;exitY=0.5;exitDx=0;exitDy=0;" edge="1" parent="1" source="bnHP4XVdyDgP-w02IS33-79" target="bnHP4XVdyDgP-w02IS33-70">
          <mxGeometry width="50" height="50" relative="1" as="geometry">
            <mxPoint x="330" y="670" as="sourcePoint" />
            <mxPoint x="380" y="620" as="targetPoint" />
          </mxGeometry>
        </mxCell>
        <mxCell id="bnHP4XVdyDgP-w02IS33-84" value="" style="endArrow=none;html=1;rounded=0;exitX=0.5;exitY=1;exitDx=0;exitDy=0;entryX=0.5;entryY=0;entryDx=0;entryDy=0;" edge="1" parent="1" target="bnHP4XVdyDgP-w02IS33-79">
          <mxGeometry width="50" height="50" relative="1" as="geometry">
            <mxPoint x="239.71" y="585" as="sourcePoint" />
            <mxPoint x="240" y="610" as="targetPoint" />
          </mxGeometry>
        </mxCell>
      </root>
    </mxGraphModel>
  </diagram>
</mxfile>
